ISO-10303-21;
HEADER;
/* Generated by software containing ST-Developer
 * from STEP Tools, Inc. (www.steptools.com) 
 */
/* OPTION: using custom renumber hook */

FILE_DESCRIPTION(
/* description */ ('STEP AP242 Edition 2',
'CAx-IF Rec.Pracs.---Representation and Presentation of Product Manufa
cturing Information (PMI)---4.0---2014-10-13',
'CAx-IF Rec.Pracs.---3D Tessellated Geometry---0.4---2014-09-14','2;1',
'CAx-IF Rec.Pracs.---User Defined Attributes---1.5---2016-08-15'),
/* implementation_level */ '2;1');

FILE_NAME(
/* name */ '3D_PCB1_2026-05-17 parts - Cap',
/* time_stamp */ '2026-06-02T05:15:02Z',
/* author */ (''),
/* organization */ (''),
/* preprocessor_version */ 'ST-DEVELOPER v20',
/* originating_system */ 'ONSHAPE BY PTC INC, 1.215',
/* authorisation */ '  ');

FILE_SCHEMA (('AP242_MANAGED_MODEL_BASED_3D_ENGINEERING_MIM_LF { 1 0 10303 442 3 1 4 }'));
ENDSEC;

DATA;
#10=SHAPE_REPRESENTATION_RELATIONSHIP('','',#661,#11);
#11=ADVANCED_BREP_SHAPE_REPRESENTATION('',(#659),#1115);
#12=CYLINDRICAL_SURFACE('',#679,0.00548730411468778);
#13=CYLINDRICAL_SURFACE('',#682,0.00548730726204808);
#14=CYLINDRICAL_SURFACE('',#685,0.00548915400772787);
#15=CYLINDRICAL_SURFACE('',#688,0.00548730505537946);
#16=CYLINDRICAL_SURFACE('',#691,0.00548730623930806);
#17=CYLINDRICAL_SURFACE('',#699,0.00548730505537949);
#18=CYLINDRICAL_SURFACE('',#700,0.00248730505537945);
#19=CYLINDRICAL_SURFACE('',#706,0.00548915400772791);
#20=CYLINDRICAL_SURFACE('',#707,0.00248757016918731);
#21=CYLINDRICAL_SURFACE('',#713,0.005487307262048);
#22=CYLINDRICAL_SURFACE('',#714,0.00248730734793239);
#23=CYLINDRICAL_SURFACE('',#719,0.00248730411468776);
#24=CYLINDRICAL_SURFACE('',#722,0.00548730411468785);
#25=CYLINDRICAL_SURFACE('',#727,0.00548730623930806);
#26=CYLINDRICAL_SURFACE('',#728,0.00248730623929329);
#27=LINE('',#931,#87);
#28=LINE('',#935,#88);
#29=LINE('',#939,#89);
#30=LINE('',#943,#90);
#31=LINE('',#947,#91);
#32=LINE('',#951,#92);
#33=LINE('',#955,#93);
#34=LINE('',#959,#94);
#35=LINE('',#963,#95);
#36=LINE('',#967,#96);
#37=LINE('',#971,#97);
#38=LINE('',#975,#98);
#39=LINE('',#979,#99);
#40=LINE('',#983,#100);
#41=LINE('',#987,#101);
#42=LINE('',#989,#102);
#43=LINE('',#993,#103);
#44=LINE('',#995,#104);
#45=LINE('',#997,#105);
#46=LINE('',#999,#106);
#47=LINE('',#1003,#107);
#48=LINE('',#1005,#108);
#49=LINE('',#1007,#109);
#50=LINE('',#1011,#110);
#51=LINE('',#1013,#111);
#52=LINE('',#1015,#112);
#53=LINE('',#1019,#113);
#54=LINE('',#1021,#114);
#55=LINE('',#1023,#115);
#56=LINE('',#1027,#116);
#57=LINE('',#1030,#117);
#58=LINE('',#1035,#118);
#59=LINE('',#1039,#119);
#60=LINE('',#1040,#120);
#61=LINE('',#1042,#121);
#62=LINE('',#1044,#122);
#63=LINE('',#1047,#123);
#64=LINE('',#1052,#124);
#65=LINE('',#1056,#125);
#66=LINE('',#1057,#126);
#67=LINE('',#1059,#127);
#68=LINE('',#1061,#128);
#69=LINE('',#1064,#129);
#70=LINE('',#1069,#130);
#71=LINE('',#1073,#131);
#72=LINE('',#1074,#132);
#73=LINE('',#1076,#133);
#74=LINE('',#1078,#134);
#75=LINE('',#1081,#135);
#76=LINE('',#1086,#136);
#77=LINE('',#1090,#137);
#78=LINE('',#1091,#138);
#79=LINE('',#1093,#139);
#80=LINE('',#1095,#140);
#81=LINE('',#1098,#141);
#82=LINE('',#1103,#142);
#83=LINE('',#1107,#143);
#84=LINE('',#1108,#144);
#85=LINE('',#1110,#145);
#86=LINE('',#1112,#146);
#87=VECTOR('',#736,1.);
#88=VECTOR('',#739,1.);
#89=VECTOR('',#742,1.);
#90=VECTOR('',#745,1.);
#91=VECTOR('',#748,1.);
#92=VECTOR('',#751,1.);
#93=VECTOR('',#754,1.);
#94=VECTOR('',#757,1.);
#95=VECTOR('',#760,1.);
#96=VECTOR('',#763,1.);
#97=VECTOR('',#766,1.);
#98=VECTOR('',#769,1.);
#99=VECTOR('',#772,1.);
#100=VECTOR('',#775,1.);
#101=VECTOR('',#778,1.);
#102=VECTOR('',#781,1.);
#103=VECTOR('',#784,1.);
#104=VECTOR('',#787,1.);
#105=VECTOR('',#788,1.);
#106=VECTOR('',#791,1.);
#107=VECTOR('',#796,1.);
#108=VECTOR('',#797,1.);
#109=VECTOR('',#800,1.);
#110=VECTOR('',#805,1.);
#111=VECTOR('',#806,1.);
#112=VECTOR('',#809,1.);
#113=VECTOR('',#814,1.);
#114=VECTOR('',#815,1.);
#115=VECTOR('',#818,1.);
#116=VECTOR('',#823,1.);
#117=VECTOR('',#828,1.);
#118=VECTOR('',#831,1.);
#119=VECTOR('',#836,1.);
#120=VECTOR('',#837,1.);
#121=VECTOR('',#840,1.);
#122=VECTOR('',#843,1.);
#123=VECTOR('',#848,1.);
#124=VECTOR('',#851,1.);
#125=VECTOR('',#856,1.);
#126=VECTOR('',#857,1.);
#127=VECTOR('',#860,1.);
#128=VECTOR('',#863,1.);
#129=VECTOR('',#868,1.);
#130=VECTOR('',#871,1.);
#131=VECTOR('',#876,1.);
#132=VECTOR('',#877,1.);
#133=VECTOR('',#880,1.);
#134=VECTOR('',#883,1.);
#135=VECTOR('',#888,1.);
#136=VECTOR('',#891,1.);
#137=VECTOR('',#896,1.);
#138=VECTOR('',#897,1.);
#139=VECTOR('',#900,1.);
#140=VECTOR('',#903,1.);
#141=VECTOR('',#908,1.);
#142=VECTOR('',#911,1.);
#143=VECTOR('',#916,1.);
#144=VECTOR('',#917,1.);
#145=VECTOR('',#920,1.);
#146=VECTOR('',#923,1.);
#147=ORIENTED_EDGE('',*,*,#327,.F.);
#148=ORIENTED_EDGE('',*,*,#328,.T.);
#149=ORIENTED_EDGE('',*,*,#329,.T.);
#150=ORIENTED_EDGE('',*,*,#330,.F.);
#151=ORIENTED_EDGE('',*,*,#331,.F.);
#152=ORIENTED_EDGE('',*,*,#332,.F.);
#153=ORIENTED_EDGE('',*,*,#333,.T.);
#154=ORIENTED_EDGE('',*,*,#334,.F.);
#155=ORIENTED_EDGE('',*,*,#335,.F.);
#156=ORIENTED_EDGE('',*,*,#336,.F.);
#157=ORIENTED_EDGE('',*,*,#337,.T.);
#158=ORIENTED_EDGE('',*,*,#338,.T.);
#159=ORIENTED_EDGE('',*,*,#339,.T.);
#160=ORIENTED_EDGE('',*,*,#340,.T.);
#161=ORIENTED_EDGE('',*,*,#341,.F.);
#162=ORIENTED_EDGE('',*,*,#342,.T.);
#163=ORIENTED_EDGE('',*,*,#343,.F.);
#164=ORIENTED_EDGE('',*,*,#344,.F.);
#165=ORIENTED_EDGE('',*,*,#345,.F.);
#166=ORIENTED_EDGE('',*,*,#346,.T.);
#167=ORIENTED_EDGE('',*,*,#347,.T.);
#168=ORIENTED_EDGE('',*,*,#348,.F.);
#169=ORIENTED_EDGE('',*,*,#349,.F.);
#170=ORIENTED_EDGE('',*,*,#350,.T.);
#171=ORIENTED_EDGE('',*,*,#351,.T.);
#172=ORIENTED_EDGE('',*,*,#352,.F.);
#173=ORIENTED_EDGE('',*,*,#353,.F.);
#174=ORIENTED_EDGE('',*,*,#354,.T.);
#175=ORIENTED_EDGE('',*,*,#355,.T.);
#176=ORIENTED_EDGE('',*,*,#356,.F.);
#177=ORIENTED_EDGE('',*,*,#335,.T.);
#178=ORIENTED_EDGE('',*,*,#357,.F.);
#179=ORIENTED_EDGE('',*,*,#358,.F.);
#180=ORIENTED_EDGE('',*,*,#359,.T.);
#181=ORIENTED_EDGE('',*,*,#344,.T.);
#182=ORIENTED_EDGE('',*,*,#360,.F.);
#183=ORIENTED_EDGE('',*,*,#361,.F.);
#184=ORIENTED_EDGE('',*,*,#357,.T.);
#185=ORIENTED_EDGE('',*,*,#343,.T.);
#186=ORIENTED_EDGE('',*,*,#362,.F.);
#187=ORIENTED_EDGE('',*,*,#363,.F.);
#188=ORIENTED_EDGE('',*,*,#360,.T.);
#189=ORIENTED_EDGE('',*,*,#342,.F.);
#190=ORIENTED_EDGE('',*,*,#364,.F.);
#191=ORIENTED_EDGE('',*,*,#365,.T.);
#192=ORIENTED_EDGE('',*,*,#362,.T.);
#193=ORIENTED_EDGE('',*,*,#341,.T.);
#194=ORIENTED_EDGE('',*,*,#366,.F.);
#195=ORIENTED_EDGE('',*,*,#367,.F.);
#196=ORIENTED_EDGE('',*,*,#364,.T.);
#197=ORIENTED_EDGE('',*,*,#340,.F.);
#198=ORIENTED_EDGE('',*,*,#368,.F.);
#199=ORIENTED_EDGE('',*,*,#369,.T.);
#200=ORIENTED_EDGE('',*,*,#366,.T.);
#201=ORIENTED_EDGE('',*,*,#339,.F.);
#202=ORIENTED_EDGE('',*,*,#370,.F.);
#203=ORIENTED_EDGE('',*,*,#371,.T.);
#204=ORIENTED_EDGE('',*,*,#368,.T.);
#205=ORIENTED_EDGE('',*,*,#338,.F.);
#206=ORIENTED_EDGE('',*,*,#372,.F.);
#207=ORIENTED_EDGE('',*,*,#373,.T.);
#208=ORIENTED_EDGE('',*,*,#370,.T.);
#209=ORIENTED_EDGE('',*,*,#337,.F.);
#210=ORIENTED_EDGE('',*,*,#374,.F.);
#211=ORIENTED_EDGE('',*,*,#375,.T.);
#212=ORIENTED_EDGE('',*,*,#372,.T.);
#213=ORIENTED_EDGE('',*,*,#336,.T.);
#214=ORIENTED_EDGE('',*,*,#359,.F.);
#215=ORIENTED_EDGE('',*,*,#376,.F.);
#216=ORIENTED_EDGE('',*,*,#374,.T.);
#217=ORIENTED_EDGE('',*,*,#358,.T.);
#218=ORIENTED_EDGE('',*,*,#361,.T.);
#219=ORIENTED_EDGE('',*,*,#363,.T.);
#220=ORIENTED_EDGE('',*,*,#365,.F.);
#221=ORIENTED_EDGE('',*,*,#367,.T.);
#222=ORIENTED_EDGE('',*,*,#369,.F.);
#223=ORIENTED_EDGE('',*,*,#371,.F.);
#224=ORIENTED_EDGE('',*,*,#373,.F.);
#225=ORIENTED_EDGE('',*,*,#375,.F.);
#226=ORIENTED_EDGE('',*,*,#376,.T.);
#227=ORIENTED_EDGE('',*,*,#377,.F.);
#228=ORIENTED_EDGE('',*,*,#378,.T.);
#229=ORIENTED_EDGE('',*,*,#379,.F.);
#230=ORIENTED_EDGE('',*,*,#380,.F.);
#231=ORIENTED_EDGE('',*,*,#381,.F.);
#232=ORIENTED_EDGE('',*,*,#377,.T.);
#233=ORIENTED_EDGE('',*,*,#382,.T.);
#234=ORIENTED_EDGE('',*,*,#334,.T.);
#235=ORIENTED_EDGE('',*,*,#378,.F.);
#236=ORIENTED_EDGE('',*,*,#381,.T.);
#237=ORIENTED_EDGE('',*,*,#333,.F.);
#238=ORIENTED_EDGE('',*,*,#383,.F.);
#239=ORIENTED_EDGE('',*,*,#382,.F.);
#240=ORIENTED_EDGE('',*,*,#380,.T.);
#241=ORIENTED_EDGE('',*,*,#384,.T.);
#242=ORIENTED_EDGE('',*,*,#331,.T.);
#243=ORIENTED_EDGE('',*,*,#384,.F.);
#244=ORIENTED_EDGE('',*,*,#379,.T.);
#245=ORIENTED_EDGE('',*,*,#383,.T.);
#246=ORIENTED_EDGE('',*,*,#332,.T.);
#247=ORIENTED_EDGE('',*,*,#385,.F.);
#248=ORIENTED_EDGE('',*,*,#386,.T.);
#249=ORIENTED_EDGE('',*,*,#387,.T.);
#250=ORIENTED_EDGE('',*,*,#388,.F.);
#251=ORIENTED_EDGE('',*,*,#389,.F.);
#252=ORIENTED_EDGE('',*,*,#385,.T.);
#253=ORIENTED_EDGE('',*,*,#390,.T.);
#254=ORIENTED_EDGE('',*,*,#348,.T.);
#255=ORIENTED_EDGE('',*,*,#386,.F.);
#256=ORIENTED_EDGE('',*,*,#389,.T.);
#257=ORIENTED_EDGE('',*,*,#347,.F.);
#258=ORIENTED_EDGE('',*,*,#391,.F.);
#259=ORIENTED_EDGE('',*,*,#390,.F.);
#260=ORIENTED_EDGE('',*,*,#388,.T.);
#261=ORIENTED_EDGE('',*,*,#392,.T.);
#262=ORIENTED_EDGE('',*,*,#345,.T.);
#263=ORIENTED_EDGE('',*,*,#387,.F.);
#264=ORIENTED_EDGE('',*,*,#391,.T.);
#265=ORIENTED_EDGE('',*,*,#346,.F.);
#266=ORIENTED_EDGE('',*,*,#392,.F.);
#267=ORIENTED_EDGE('',*,*,#393,.F.);
#268=ORIENTED_EDGE('',*,*,#394,.T.);
#269=ORIENTED_EDGE('',*,*,#395,.T.);
#270=ORIENTED_EDGE('',*,*,#396,.F.);
#271=ORIENTED_EDGE('',*,*,#397,.F.);
#272=ORIENTED_EDGE('',*,*,#393,.T.);
#273=ORIENTED_EDGE('',*,*,#398,.T.);
#274=ORIENTED_EDGE('',*,*,#330,.T.);
#275=ORIENTED_EDGE('',*,*,#394,.F.);
#276=ORIENTED_EDGE('',*,*,#397,.T.);
#277=ORIENTED_EDGE('',*,*,#329,.F.);
#278=ORIENTED_EDGE('',*,*,#399,.F.);
#279=ORIENTED_EDGE('',*,*,#398,.F.);
#280=ORIENTED_EDGE('',*,*,#396,.T.);
#281=ORIENTED_EDGE('',*,*,#400,.T.);
#282=ORIENTED_EDGE('',*,*,#327,.T.);
#283=ORIENTED_EDGE('',*,*,#395,.F.);
#284=ORIENTED_EDGE('',*,*,#399,.T.);
#285=ORIENTED_EDGE('',*,*,#328,.F.);
#286=ORIENTED_EDGE('',*,*,#400,.F.);
#287=ORIENTED_EDGE('',*,*,#401,.T.);
#288=ORIENTED_EDGE('',*,*,#402,.F.);
#289=ORIENTED_EDGE('',*,*,#403,.F.);
#290=ORIENTED_EDGE('',*,*,#404,.T.);
#291=ORIENTED_EDGE('',*,*,#405,.F.);
#292=ORIENTED_EDGE('',*,*,#402,.T.);
#293=ORIENTED_EDGE('',*,*,#406,.T.);
#294=ORIENTED_EDGE('',*,*,#349,.T.);
#295=ORIENTED_EDGE('',*,*,#407,.F.);
#296=ORIENTED_EDGE('',*,*,#403,.T.);
#297=ORIENTED_EDGE('',*,*,#405,.T.);
#298=ORIENTED_EDGE('',*,*,#352,.T.);
#299=ORIENTED_EDGE('',*,*,#401,.F.);
#300=ORIENTED_EDGE('',*,*,#408,.T.);
#301=ORIENTED_EDGE('',*,*,#350,.F.);
#302=ORIENTED_EDGE('',*,*,#406,.F.);
#303=ORIENTED_EDGE('',*,*,#404,.F.);
#304=ORIENTED_EDGE('',*,*,#407,.T.);
#305=ORIENTED_EDGE('',*,*,#351,.F.);
#306=ORIENTED_EDGE('',*,*,#408,.F.);
#307=ORIENTED_EDGE('',*,*,#409,.F.);
#308=ORIENTED_EDGE('',*,*,#410,.T.);
#309=ORIENTED_EDGE('',*,*,#411,.T.);
#310=ORIENTED_EDGE('',*,*,#412,.F.);
#311=ORIENTED_EDGE('',*,*,#413,.F.);
#312=ORIENTED_EDGE('',*,*,#409,.T.);
#313=ORIENTED_EDGE('',*,*,#414,.T.);
#314=ORIENTED_EDGE('',*,*,#356,.T.);
#315=ORIENTED_EDGE('',*,*,#410,.F.);
#316=ORIENTED_EDGE('',*,*,#413,.T.);
#317=ORIENTED_EDGE('',*,*,#355,.F.);
#318=ORIENTED_EDGE('',*,*,#415,.F.);
#319=ORIENTED_EDGE('',*,*,#414,.F.);
#320=ORIENTED_EDGE('',*,*,#412,.T.);
#321=ORIENTED_EDGE('',*,*,#416,.T.);
#322=ORIENTED_EDGE('',*,*,#353,.T.);
#323=ORIENTED_EDGE('',*,*,#411,.F.);
#324=ORIENTED_EDGE('',*,*,#415,.T.);
#325=ORIENTED_EDGE('',*,*,#354,.F.);
#326=ORIENTED_EDGE('',*,*,#416,.F.);
#327=EDGE_CURVE('',#417,#418,#477,.T.);
#328=EDGE_CURVE('',#417,#419,#27,.T.);
#329=EDGE_CURVE('',#419,#420,#478,.T.);
#330=EDGE_CURVE('',#418,#420,#28,.T.);
#331=EDGE_CURVE('',#421,#422,#479,.T.);
#332=EDGE_CURVE('',#423,#421,#29,.T.);
#333=EDGE_CURVE('',#423,#424,#480,.T.);
#334=EDGE_CURVE('',#422,#424,#30,.T.);
#335=EDGE_CURVE('',#425,#426,#481,.T.);
#336=EDGE_CURVE('',#427,#425,#31,.T.);
#337=EDGE_CURVE('',#427,#428,#482,.T.);
#338=EDGE_CURVE('',#428,#429,#32,.T.);
#339=EDGE_CURVE('',#429,#430,#483,.T.);
#340=EDGE_CURVE('',#430,#431,#33,.T.);
#341=EDGE_CURVE('',#432,#431,#484,.T.);
#342=EDGE_CURVE('',#432,#433,#34,.T.);
#343=EDGE_CURVE('',#434,#433,#485,.T.);
#344=EDGE_CURVE('',#426,#434,#35,.T.);
#345=EDGE_CURVE('',#435,#436,#486,.T.);
#346=EDGE_CURVE('',#435,#437,#36,.T.);
#347=EDGE_CURVE('',#437,#438,#487,.T.);
#348=EDGE_CURVE('',#436,#438,#37,.T.);
#349=EDGE_CURVE('',#439,#440,#488,.T.);
#350=EDGE_CURVE('',#439,#441,#38,.T.);
#351=EDGE_CURVE('',#441,#442,#489,.T.);
#352=EDGE_CURVE('',#440,#442,#39,.T.);
#353=EDGE_CURVE('',#443,#444,#490,.T.);
#354=EDGE_CURVE('',#443,#445,#40,.T.);
#355=EDGE_CURVE('',#445,#446,#491,.T.);
#356=EDGE_CURVE('',#444,#446,#41,.T.);
#357=EDGE_CURVE('',#447,#426,#42,.T.);
#358=EDGE_CURVE('',#448,#447,#492,.T.);
#359=EDGE_CURVE('',#448,#425,#43,.T.);
#360=EDGE_CURVE('',#449,#434,#44,.T.);
#361=EDGE_CURVE('',#447,#449,#45,.T.);
#362=EDGE_CURVE('',#450,#433,#46,.T.);
#363=EDGE_CURVE('',#449,#450,#493,.T.);
#364=EDGE_CURVE('',#451,#432,#47,.T.);
#365=EDGE_CURVE('',#451,#450,#48,.T.);
#366=EDGE_CURVE('',#452,#431,#49,.T.);
#367=EDGE_CURVE('',#451,#452,#494,.T.);
#368=EDGE_CURVE('',#453,#430,#50,.T.);
#369=EDGE_CURVE('',#453,#452,#51,.T.);
#370=EDGE_CURVE('',#454,#429,#52,.T.);
#371=EDGE_CURVE('',#454,#453,#495,.T.);
#372=EDGE_CURVE('',#455,#428,#53,.T.);
#373=EDGE_CURVE('',#455,#454,#54,.T.);
#374=EDGE_CURVE('',#456,#427,#55,.T.);
#375=EDGE_CURVE('',#456,#455,#496,.T.);
#376=EDGE_CURVE('',#456,#448,#56,.T.);
#377=EDGE_CURVE('',#457,#458,#57,.T.);
#378=EDGE_CURVE('',#457,#459,#497,.F.);
#379=EDGE_CURVE('',#460,#459,#58,.T.);
#380=EDGE_CURVE('',#458,#460,#498,.F.);
#381=EDGE_CURVE('',#457,#424,#59,.T.);
#382=EDGE_CURVE('',#458,#422,#60,.T.);
#383=EDGE_CURVE('',#459,#423,#61,.T.);
#384=EDGE_CURVE('',#460,#421,#62,.T.);
#385=EDGE_CURVE('',#461,#462,#63,.T.);
#386=EDGE_CURVE('',#461,#463,#499,.F.);
#387=EDGE_CURVE('',#463,#464,#64,.T.);
#388=EDGE_CURVE('',#462,#464,#500,.F.);
#389=EDGE_CURVE('',#461,#438,#65,.T.);
#390=EDGE_CURVE('',#462,#436,#66,.T.);
#391=EDGE_CURVE('',#463,#437,#67,.T.);
#392=EDGE_CURVE('',#464,#435,#68,.T.);
#393=EDGE_CURVE('',#465,#466,#69,.T.);
#394=EDGE_CURVE('',#465,#467,#501,.F.);
#395=EDGE_CURVE('',#467,#468,#70,.T.);
#396=EDGE_CURVE('',#466,#468,#502,.F.);
#397=EDGE_CURVE('',#465,#420,#71,.T.);
#398=EDGE_CURVE('',#466,#418,#72,.T.);
#399=EDGE_CURVE('',#467,#419,#73,.T.);
#400=EDGE_CURVE('',#468,#417,#74,.T.);
#401=EDGE_CURVE('',#469,#470,#75,.T.);
#402=EDGE_CURVE('',#471,#470,#503,.F.);
#403=EDGE_CURVE('',#472,#471,#76,.T.);
#404=EDGE_CURVE('',#472,#469,#504,.F.);
#405=EDGE_CURVE('',#471,#440,#77,.T.);
#406=EDGE_CURVE('',#470,#439,#78,.T.);
#407=EDGE_CURVE('',#472,#442,#79,.T.);
#408=EDGE_CURVE('',#469,#441,#80,.T.);
#409=EDGE_CURVE('',#473,#474,#81,.T.);
#410=EDGE_CURVE('',#473,#475,#505,.F.);
#411=EDGE_CURVE('',#475,#476,#82,.T.);
#412=EDGE_CURVE('',#474,#476,#506,.F.);
#413=EDGE_CURVE('',#473,#446,#83,.T.);
#414=EDGE_CURVE('',#474,#444,#84,.T.);
#415=EDGE_CURVE('',#475,#445,#85,.T.);
#416=EDGE_CURVE('',#476,#443,#86,.T.);
#417=VERTEX_POINT('',#929);
#418=VERTEX_POINT('',#930);
#419=VERTEX_POINT('',#932);
#420=VERTEX_POINT('',#934);
#421=VERTEX_POINT('',#937);
#422=VERTEX_POINT('',#938);
#423=VERTEX_POINT('',#940);
#424=VERTEX_POINT('',#942);
#425=VERTEX_POINT('',#945);
#426=VERTEX_POINT('',#946);
#427=VERTEX_POINT('',#948);
#428=VERTEX_POINT('',#950);
#429=VERTEX_POINT('',#952);
#430=VERTEX_POINT('',#954);
#431=VERTEX_POINT('',#956);
#432=VERTEX_POINT('',#958);
#433=VERTEX_POINT('',#960);
#434=VERTEX_POINT('',#962);
#435=VERTEX_POINT('',#965);
#436=VERTEX_POINT('',#966);
#437=VERTEX_POINT('',#968);
#438=VERTEX_POINT('',#970);
#439=VERTEX_POINT('',#973);
#440=VERTEX_POINT('',#974);
#441=VERTEX_POINT('',#976);
#442=VERTEX_POINT('',#978);
#443=VERTEX_POINT('',#981);
#444=VERTEX_POINT('',#982);
#445=VERTEX_POINT('',#984);
#446=VERTEX_POINT('',#986);
#447=VERTEX_POINT('',#990);
#448=VERTEX_POINT('',#992);
#449=VERTEX_POINT('',#996);
#450=VERTEX_POINT('',#1000);
#451=VERTEX_POINT('',#1004);
#452=VERTEX_POINT('',#1008);
#453=VERTEX_POINT('',#1012);
#454=VERTEX_POINT('',#1016);
#455=VERTEX_POINT('',#1020);
#456=VERTEX_POINT('',#1024);
#457=VERTEX_POINT('',#1031);
#458=VERTEX_POINT('',#1032);
#459=VERTEX_POINT('',#1034);
#460=VERTEX_POINT('',#1036);
#461=VERTEX_POINT('',#1048);
#462=VERTEX_POINT('',#1049);
#463=VERTEX_POINT('',#1051);
#464=VERTEX_POINT('',#1053);
#465=VERTEX_POINT('',#1065);
#466=VERTEX_POINT('',#1066);
#467=VERTEX_POINT('',#1068);
#468=VERTEX_POINT('',#1070);
#469=VERTEX_POINT('',#1082);
#470=VERTEX_POINT('',#1083);
#471=VERTEX_POINT('',#1085);
#472=VERTEX_POINT('',#1087);
#473=VERTEX_POINT('',#1099);
#474=VERTEX_POINT('',#1100);
#475=VERTEX_POINT('',#1102);
#476=VERTEX_POINT('',#1104);
#477=CIRCLE('',#664,0.00248730734793239);
#478=CIRCLE('',#665,0.005487307262048);
#479=CIRCLE('',#666,0.00248730505537945);
#480=CIRCLE('',#667,0.00548730505537949);
#481=CIRCLE('',#668,0.00548730411468778);
#482=CIRCLE('',#669,0.00548730623930806);
#483=CIRCLE('',#670,0.00548730505537946);
#484=CIRCLE('',#671,0.00548915400772787);
#485=CIRCLE('',#672,0.00548730726204808);
#486=CIRCLE('',#673,0.00248757016918731);
#487=CIRCLE('',#674,0.00548915400772791);
#488=CIRCLE('',#675,0.00248730411468776);
#489=CIRCLE('',#676,0.00548730411468785);
#490=CIRCLE('',#677,0.00248730623929329);
#491=CIRCLE('',#678,0.00548730623930806);
#492=CIRCLE('',#680,0.00548730411468778);
#493=CIRCLE('',#683,0.00548730726204808);
#494=CIRCLE('',#686,0.00548915400772787);
#495=CIRCLE('',#689,0.00548730505537946);
#496=CIRCLE('',#692,0.00548730623930806);
#497=CIRCLE('',#696,0.00548730505537949);
#498=CIRCLE('',#697,0.00248730505537945);
#499=CIRCLE('',#703,0.00548915400772791);
#500=CIRCLE('',#704,0.00248757016918731);
#501=CIRCLE('',#710,0.005487307262048);
#502=CIRCLE('',#711,0.00248730734793239);
#503=CIRCLE('',#717,0.00248730411468776);
#504=CIRCLE('',#718,0.00548730411468785);
#505=CIRCLE('',#724,0.00548730623930806);
#506=CIRCLE('',#725,0.00248730623929329);
#507=EDGE_LOOP('',(#147,#148,#149,#150));
#508=EDGE_LOOP('',(#151,#152,#153,#154));
#509=EDGE_LOOP('',(#155,#156,#157,#158,#159,#160,#161,#162,#163,#164));
#510=EDGE_LOOP('',(#165,#166,#167,#168));
#511=EDGE_LOOP('',(#169,#170,#171,#172));
#512=EDGE_LOOP('',(#173,#174,#175,#176));
#513=EDGE_LOOP('',(#177,#178,#179,#180));
#514=EDGE_LOOP('',(#181,#182,#183,#184));
#515=EDGE_LOOP('',(#185,#186,#187,#188));
#516=EDGE_LOOP('',(#189,#190,#191,#192));
#517=EDGE_LOOP('',(#193,#194,#195,#196));
#518=EDGE_LOOP('',(#197,#198,#199,#200));
#519=EDGE_LOOP('',(#201,#202,#203,#204));
#520=EDGE_LOOP('',(#205,#206,#207,#208));
#521=EDGE_LOOP('',(#209,#210,#211,#212));
#522=EDGE_LOOP('',(#213,#214,#215,#216));
#523=EDGE_LOOP('',(#217,#218,#219,#220,#221,#222,#223,#224,#225,#226));
#524=EDGE_LOOP('',(#227,#228,#229,#230));
#525=EDGE_LOOP('',(#231,#232,#233,#234));
#526=EDGE_LOOP('',(#235,#236,#237,#238));
#527=EDGE_LOOP('',(#239,#240,#241,#242));
#528=EDGE_LOOP('',(#243,#244,#245,#246));
#529=EDGE_LOOP('',(#247,#248,#249,#250));
#530=EDGE_LOOP('',(#251,#252,#253,#254));
#531=EDGE_LOOP('',(#255,#256,#257,#258));
#532=EDGE_LOOP('',(#259,#260,#261,#262));
#533=EDGE_LOOP('',(#263,#264,#265,#266));
#534=EDGE_LOOP('',(#267,#268,#269,#270));
#535=EDGE_LOOP('',(#271,#272,#273,#274));
#536=EDGE_LOOP('',(#275,#276,#277,#278));
#537=EDGE_LOOP('',(#279,#280,#281,#282));
#538=EDGE_LOOP('',(#283,#284,#285,#286));
#539=EDGE_LOOP('',(#287,#288,#289,#290));
#540=EDGE_LOOP('',(#291,#292,#293,#294));
#541=EDGE_LOOP('',(#295,#296,#297,#298));
#542=EDGE_LOOP('',(#299,#300,#301,#302));
#543=EDGE_LOOP('',(#303,#304,#305,#306));
#544=EDGE_LOOP('',(#307,#308,#309,#310));
#545=EDGE_LOOP('',(#311,#312,#313,#314));
#546=EDGE_LOOP('',(#315,#316,#317,#318));
#547=EDGE_LOOP('',(#319,#320,#321,#322));
#548=EDGE_LOOP('',(#323,#324,#325,#326));
#549=FACE_BOUND('',#507,.T.);
#550=FACE_BOUND('',#508,.T.);
#551=FACE_BOUND('',#509,.T.);
#552=FACE_BOUND('',#510,.T.);
#553=FACE_BOUND('',#511,.T.);
#554=FACE_BOUND('',#512,.T.);
#555=FACE_BOUND('',#513,.T.);
#556=FACE_BOUND('',#514,.T.);
#557=FACE_BOUND('',#515,.T.);
#558=FACE_BOUND('',#516,.T.);
#559=FACE_BOUND('',#517,.T.);
#560=FACE_BOUND('',#518,.T.);
#561=FACE_BOUND('',#519,.T.);
#562=FACE_BOUND('',#520,.T.);
#563=FACE_BOUND('',#521,.T.);
#564=FACE_BOUND('',#522,.T.);
#565=FACE_BOUND('',#523,.T.);
#566=FACE_BOUND('',#524,.T.);
#567=FACE_BOUND('',#525,.T.);
#568=FACE_BOUND('',#526,.T.);
#569=FACE_BOUND('',#527,.T.);
#570=FACE_BOUND('',#528,.T.);
#571=FACE_BOUND('',#529,.T.);
#572=FACE_BOUND('',#530,.T.);
#573=FACE_BOUND('',#531,.T.);
#574=FACE_BOUND('',#532,.T.);
#575=FACE_BOUND('',#533,.T.);
#576=FACE_BOUND('',#534,.T.);
#577=FACE_BOUND('',#535,.T.);
#578=FACE_BOUND('',#536,.T.);
#579=FACE_BOUND('',#537,.T.);
#580=FACE_BOUND('',#538,.T.);
#581=FACE_BOUND('',#539,.T.);
#582=FACE_BOUND('',#540,.T.);
#583=FACE_BOUND('',#541,.T.);
#584=FACE_BOUND('',#542,.T.);
#585=FACE_BOUND('',#543,.T.);
#586=FACE_BOUND('',#544,.T.);
#587=FACE_BOUND('',#545,.T.);
#588=FACE_BOUND('',#546,.T.);
#589=FACE_BOUND('',#547,.T.);
#590=FACE_BOUND('',#548,.T.);
#591=PLANE('',#663);
#592=PLANE('',#681);
#593=PLANE('',#684);
#594=PLANE('',#687);
#595=PLANE('',#690);
#596=PLANE('',#693);
#597=PLANE('',#694);
#598=PLANE('',#695);
#599=PLANE('',#698);
#600=PLANE('',#701);
#601=PLANE('',#702);
#602=PLANE('',#705);
#603=PLANE('',#708);
#604=PLANE('',#709);
#605=PLANE('',#712);
#606=PLANE('',#715);
#607=PLANE('',#716);
#608=PLANE('',#720);
#609=PLANE('',#721);
#610=PLANE('',#723);
#611=PLANE('',#726);
#612=PLANE('',#729);
#613=ADVANCED_FACE('',(#549,#550,#551,#552,#553,#554),#591,.F.);
#614=ADVANCED_FACE('',(#555),#12,.T.);
#615=ADVANCED_FACE('',(#556),#592,.F.);
#616=ADVANCED_FACE('',(#557),#13,.T.);
#617=ADVANCED_FACE('',(#558),#593,.T.);
#618=ADVANCED_FACE('',(#559),#14,.T.);
#619=ADVANCED_FACE('',(#560),#594,.T.);
#620=ADVANCED_FACE('',(#561),#15,.T.);
#621=ADVANCED_FACE('',(#562),#595,.T.);
#622=ADVANCED_FACE('',(#563),#16,.T.);
#623=ADVANCED_FACE('',(#564),#596,.F.);
#624=ADVANCED_FACE('',(#565),#597,.T.);
#625=ADVANCED_FACE('',(#566),#598,.F.);
#626=ADVANCED_FACE('',(#567),#599,.F.);
#627=ADVANCED_FACE('',(#568),#17,.T.);
#628=ADVANCED_FACE('',(#569),#18,.F.);
#629=ADVANCED_FACE('',(#570),#600,.F.);
#630=ADVANCED_FACE('',(#571),#601,.F.);
#631=ADVANCED_FACE('',(#572),#602,.F.);
#632=ADVANCED_FACE('',(#573),#19,.T.);
#633=ADVANCED_FACE('',(#574),#20,.F.);
#634=ADVANCED_FACE('',(#575),#603,.T.);
#635=ADVANCED_FACE('',(#576),#604,.F.);
#636=ADVANCED_FACE('',(#577),#605,.F.);
#637=ADVANCED_FACE('',(#578),#21,.T.);
#638=ADVANCED_FACE('',(#579),#22,.F.);
#639=ADVANCED_FACE('',(#580),#606,.T.);
#640=ADVANCED_FACE('',(#581),#607,.F.);
#641=ADVANCED_FACE('',(#582),#23,.F.);
#642=ADVANCED_FACE('',(#583),#608,.F.);
#643=ADVANCED_FACE('',(#584),#609,.T.);
#644=ADVANCED_FACE('',(#585),#24,.T.);
#645=ADVANCED_FACE('',(#586),#610,.F.);
#646=ADVANCED_FACE('',(#587),#611,.F.);
#647=ADVANCED_FACE('',(#588),#25,.T.);
#648=ADVANCED_FACE('',(#589),#26,.F.);
#649=ADVANCED_FACE('',(#590),#612,.T.);
#650=CLOSED_SHELL('',(#613,#614,#615,#616,#617,#618,#619,#620,#621,#622,
#623,#624,#625,#626,#627,#628,#629,#630,#631,#632,#633,#634,#635,#636,#637,
#638,#639,#640,#641,#642,#643,#644,#645,#646,#647,#648,#649));
#651=STYLED_ITEM('',(#652),#659);
#652=PRESENTATION_STYLE_ASSIGNMENT((#653));
#653=SURFACE_STYLE_USAGE(.BOTH.,#654);
#654=SURFACE_SIDE_STYLE('',(#655));
#655=SURFACE_STYLE_FILL_AREA(#656);
#656=FILL_AREA_STYLE('',(#657));
#657=FILL_AREA_STYLE_COLOUR('',#658);
#658=COLOUR_RGB('',0.647058823529412,0.647058823529412,0.647058823529412);
#659=MANIFOLD_SOLID_BREP('Cap',#650);
#660=SHAPE_DEFINITION_REPRESENTATION(#1120,#661);
#661=SHAPE_REPRESENTATION('Cap',(#662),#1115);
#662=AXIS2_PLACEMENT_3D('',#926,#730,#731);
#663=AXIS2_PLACEMENT_3D('',#927,#732,#733);
#664=AXIS2_PLACEMENT_3D('',#928,#734,#735);
#665=AXIS2_PLACEMENT_3D('',#933,#737,#738);
#666=AXIS2_PLACEMENT_3D('',#936,#740,#741);
#667=AXIS2_PLACEMENT_3D('',#941,#743,#744);
#668=AXIS2_PLACEMENT_3D('',#944,#746,#747);
#669=AXIS2_PLACEMENT_3D('',#949,#749,#750);
#670=AXIS2_PLACEMENT_3D('',#953,#752,#753);
#671=AXIS2_PLACEMENT_3D('',#957,#755,#756);
#672=AXIS2_PLACEMENT_3D('',#961,#758,#759);
#673=AXIS2_PLACEMENT_3D('',#964,#761,#762);
#674=AXIS2_PLACEMENT_3D('',#969,#764,#765);
#675=AXIS2_PLACEMENT_3D('',#972,#767,#768);
#676=AXIS2_PLACEMENT_3D('',#977,#770,#771);
#677=AXIS2_PLACEMENT_3D('',#980,#773,#774);
#678=AXIS2_PLACEMENT_3D('',#985,#776,#777);
#679=AXIS2_PLACEMENT_3D('',#988,#779,#780);
#680=AXIS2_PLACEMENT_3D('',#991,#782,#783);
#681=AXIS2_PLACEMENT_3D('',#994,#785,#786);
#682=AXIS2_PLACEMENT_3D('',#998,#789,#790);
#683=AXIS2_PLACEMENT_3D('',#1001,#792,#793);
#684=AXIS2_PLACEMENT_3D('',#1002,#794,#795);
#685=AXIS2_PLACEMENT_3D('',#1006,#798,#799);
#686=AXIS2_PLACEMENT_3D('',#1009,#801,#802);
#687=AXIS2_PLACEMENT_3D('',#1010,#803,#804);
#688=AXIS2_PLACEMENT_3D('',#1014,#807,#808);
#689=AXIS2_PLACEMENT_3D('',#1017,#810,#811);
#690=AXIS2_PLACEMENT_3D('',#1018,#812,#813);
#691=AXIS2_PLACEMENT_3D('',#1022,#816,#817);
#692=AXIS2_PLACEMENT_3D('',#1025,#819,#820);
#693=AXIS2_PLACEMENT_3D('',#1026,#821,#822);
#694=AXIS2_PLACEMENT_3D('',#1028,#824,#825);
#695=AXIS2_PLACEMENT_3D('',#1029,#826,#827);
#696=AXIS2_PLACEMENT_3D('',#1033,#829,#830);
#697=AXIS2_PLACEMENT_3D('',#1037,#832,#833);
#698=AXIS2_PLACEMENT_3D('',#1038,#834,#835);
#699=AXIS2_PLACEMENT_3D('',#1041,#838,#839);
#700=AXIS2_PLACEMENT_3D('',#1043,#841,#842);
#701=AXIS2_PLACEMENT_3D('',#1045,#844,#845);
#702=AXIS2_PLACEMENT_3D('',#1046,#846,#847);
#703=AXIS2_PLACEMENT_3D('',#1050,#849,#850);
#704=AXIS2_PLACEMENT_3D('',#1054,#852,#853);
#705=AXIS2_PLACEMENT_3D('',#1055,#854,#855);
#706=AXIS2_PLACEMENT_3D('',#1058,#858,#859);
#707=AXIS2_PLACEMENT_3D('',#1060,#861,#862);
#708=AXIS2_PLACEMENT_3D('',#1062,#864,#865);
#709=AXIS2_PLACEMENT_3D('',#1063,#866,#867);
#710=AXIS2_PLACEMENT_3D('',#1067,#869,#870);
#711=AXIS2_PLACEMENT_3D('',#1071,#872,#873);
#712=AXIS2_PLACEMENT_3D('',#1072,#874,#875);
#713=AXIS2_PLACEMENT_3D('',#1075,#878,#879);
#714=AXIS2_PLACEMENT_3D('',#1077,#881,#882);
#715=AXIS2_PLACEMENT_3D('',#1079,#884,#885);
#716=AXIS2_PLACEMENT_3D('',#1080,#886,#887);
#717=AXIS2_PLACEMENT_3D('',#1084,#889,#890);
#718=AXIS2_PLACEMENT_3D('',#1088,#892,#893);
#719=AXIS2_PLACEMENT_3D('',#1089,#894,#895);
#720=AXIS2_PLACEMENT_3D('',#1092,#898,#899);
#721=AXIS2_PLACEMENT_3D('',#1094,#901,#902);
#722=AXIS2_PLACEMENT_3D('',#1096,#904,#905);
#723=AXIS2_PLACEMENT_3D('',#1097,#906,#907);
#724=AXIS2_PLACEMENT_3D('',#1101,#909,#910);
#725=AXIS2_PLACEMENT_3D('',#1105,#912,#913);
#726=AXIS2_PLACEMENT_3D('',#1106,#914,#915);
#727=AXIS2_PLACEMENT_3D('',#1109,#918,#919);
#728=AXIS2_PLACEMENT_3D('',#1111,#921,#922);
#729=AXIS2_PLACEMENT_3D('',#1113,#924,#925);
#730=DIRECTION('',(0.,0.,1.));
#731=DIRECTION('',(1.,0.,0.));
#732=DIRECTION('',(0.,0.,1.));
#733=DIRECTION('',(1.,0.,0.));
#734=DIRECTION('',(0.,0.,1.));
#735=DIRECTION('',(1.,0.,0.));
#736=DIRECTION('',(0.834627475733645,0.55081482982077,0.));
#737=DIRECTION('',(0.,0.,1.));
#738=DIRECTION('',(1.,0.,0.));
#739=DIRECTION('',(0.473912002846972,0.880572208031557,0.));
#740=DIRECTION('',(0.,0.,1.));
#741=DIRECTION('',(1.,0.,0.));
#742=DIRECTION('',(0.856533584714189,-0.516091288685113,0.));
#743=DIRECTION('',(0.,0.,1.));
#744=DIRECTION('',(1.,0.,0.));
#745=DIRECTION('',(-0.979801000999074,-0.19997499453985,0.));
#746=DIRECTION('',(0.,0.,1.));
#747=DIRECTION('',(-1.,0.,0.));
#748=DIRECTION('',(0.844725480749724,0.535199833867825,0.));
#749=DIRECTION('',(0.,0.,-1.));
#750=DIRECTION('',(-1.,0.,0.));
#751=DIRECTION('',(-0.810465323714022,0.585786615635016,0.));
#752=DIRECTION('',(0.,0.,-1.));
#753=DIRECTION('',(-1.,0.,0.));
#754=DIRECTION('',(0.516091288685114,0.856533584714189,0.));
#755=DIRECTION('',(0.,0.,1.));
#756=DIRECTION('',(-1.,0.,0.));
#757=DIRECTION('',(0.999999955567621,0.00029810192176846,0.));
#758=DIRECTION('',(0.,0.,1.));
#759=DIRECTION('',(-1.,0.,0.));
#760=DIRECTION('',(-0.550814829820767,0.834627475733647,0.));
#761=DIRECTION('',(0.,0.,1.));
#762=DIRECTION('',(1.,0.,0.));
#763=DIRECTION('',(-0.49188855873001,0.870658168163898,0.));
#764=DIRECTION('',(0.,0.,1.));
#765=DIRECTION('',(1.,0.,0.));
#766=DIRECTION('',(-0.856533584714195,0.516091288685103,0.));
#767=DIRECTION('',(0.,0.,1.));
#768=DIRECTION('',(1.,0.,0.));
#769=DIRECTION('',(0.977747362123423,-0.20978583331743,0.));
#770=DIRECTION('',(0.,0.,1.));
#771=DIRECTION('',(1.,0.,0.));
#772=DIRECTION('',(0.834627475733646,0.550814829820768,0.));
#773=DIRECTION('',(0.,0.,1.));
#774=DIRECTION('',(1.,0.,0.));
#775=DIRECTION('',(-0.585786615635016,-0.810465323714022,0.));
#776=DIRECTION('',(0.,0.,1.));
#777=DIRECTION('',(1.,0.,0.));
#778=DIRECTION('',(0.535199833867823,-0.844725480749725,0.));
#779=DIRECTION('',(0.,0.,-1.));
#780=DIRECTION('',(-1.,0.,0.));
#781=DIRECTION('',(0.,0.,-1.));
#782=DIRECTION('',(0.,0.,1.));
#783=DIRECTION('',(-1.,0.,0.));
#784=DIRECTION('',(0.,0.,-1.));
#785=DIRECTION('',(-0.834627475733647,-0.550814829820767,0.));
#786=DIRECTION('',(0.550814829820767,-0.834627475733647,0.));
#787=DIRECTION('',(0.,0.,-1.));
#788=DIRECTION('',(-0.550814829820767,0.834627475733647,0.));
#789=DIRECTION('',(0.,0.,-1.));
#790=DIRECTION('',(-1.,0.,0.));
#791=DIRECTION('',(0.,0.,-1.));
#792=DIRECTION('',(0.,0.,1.));
#793=DIRECTION('',(-1.,0.,0.));
#794=DIRECTION('',(-0.000298101921768459,0.999999955567621,0.));
#795=DIRECTION('',(-0.999999955567621,-0.00029810192176846,0.));
#796=DIRECTION('',(0.,0.,-1.));
#797=DIRECTION('',(0.999999955567621,0.00029810192176846,0.));
#798=DIRECTION('',(0.,0.,-1.));
#799=DIRECTION('',(-1.,0.,0.));
#800=DIRECTION('',(0.,0.,-1.));
#801=DIRECTION('',(0.,0.,1.));
#802=DIRECTION('',(-1.,0.,0.));
#803=DIRECTION('',(-0.856533584714189,0.516091288685114,0.));
#804=DIRECTION('',(-0.516091288685114,-0.856533584714189,0.));
#805=DIRECTION('',(0.,0.,-1.));
#806=DIRECTION('',(0.516091288685114,0.856533584714189,0.));
#807=DIRECTION('',(0.,0.,-1.));
#808=DIRECTION('',(-1.,0.,0.));
#809=DIRECTION('',(0.,0.,-1.));
#810=DIRECTION('',(0.,0.,-1.));
#811=DIRECTION('',(-1.,0.,0.));
#812=DIRECTION('',(-0.585786615635016,-0.810465323714022,0.));
#813=DIRECTION('',(0.810465323714022,-0.585786615635016,0.));
#814=DIRECTION('',(0.,0.,-1.));
#815=DIRECTION('',(-0.810465323714022,0.585786615635016,0.));
#816=DIRECTION('',(0.,0.,-1.));
#817=DIRECTION('',(-1.,0.,0.));
#818=DIRECTION('',(0.,0.,-1.));
#819=DIRECTION('',(0.,0.,-1.));
#820=DIRECTION('',(-1.,0.,0.));
#821=DIRECTION('',(-0.535199833867825,0.844725480749724,0.));
#822=DIRECTION('',(-0.844725480749724,-0.535199833867825,0.));
#823=DIRECTION('',(0.844725480749724,0.535199833867825,0.));
#824=DIRECTION('',(0.,0.,1.));
#825=DIRECTION('',(1.,0.,0.));
#826=DIRECTION('',(0.,0.,1.));
#827=DIRECTION('',(1.,0.,0.));
#828=DIRECTION('',(0.979801000999074,0.19997499453985,0.));
#829=DIRECTION('',(0.,0.,1.));
#830=DIRECTION('',(1.,0.,0.));
#831=DIRECTION('',(-0.856533584714189,0.516091288685113,0.));
#832=DIRECTION('',(0.,0.,1.));
#833=DIRECTION('',(1.,0.,0.));
#834=DIRECTION('',(-0.19997499453985,0.979801000999074,0.));
#835=DIRECTION('',(-0.979801000999074,-0.19997499453985,0.));
#836=DIRECTION('',(0.,0.,1.));
#837=DIRECTION('',(0.,0.,1.));
#838=DIRECTION('',(0.,0.,1.));
#839=DIRECTION('',(1.,0.,0.));
#840=DIRECTION('',(0.,0.,1.));
#841=DIRECTION('',(0.,0.,1.));
#842=DIRECTION('',(1.,0.,0.));
#843=DIRECTION('',(0.,0.,1.));
#844=DIRECTION('',(-0.516091288685113,-0.856533584714189,0.));
#845=DIRECTION('',(0.856533584714189,-0.516091288685113,0.));
#846=DIRECTION('',(0.,0.,1.));
#847=DIRECTION('',(1.,0.,0.));
#848=DIRECTION('',(0.856533584714195,-0.516091288685103,0.));
#849=DIRECTION('',(0.,0.,1.));
#850=DIRECTION('',(1.,0.,0.));
#851=DIRECTION('',(0.49188855873001,-0.870658168163898,0.));
#852=DIRECTION('',(0.,0.,1.));
#853=DIRECTION('',(1.,0.,0.));
#854=DIRECTION('',(0.516091288685103,0.856533584714195,0.));
#855=DIRECTION('',(-0.856533584714195,0.516091288685103,0.));
#856=DIRECTION('',(0.,0.,1.));
#857=DIRECTION('',(0.,0.,1.));
#858=DIRECTION('',(0.,0.,1.));
#859=DIRECTION('',(1.,0.,0.));
#860=DIRECTION('',(0.,0.,1.));
#861=DIRECTION('',(0.,0.,1.));
#862=DIRECTION('',(1.,0.,0.));
#863=DIRECTION('',(0.,0.,1.));
#864=DIRECTION('',(0.870658168163898,0.49188855873001,0.));
#865=DIRECTION('',(-0.49188855873001,0.870658168163898,0.));
#866=DIRECTION('',(0.,0.,1.));
#867=DIRECTION('',(1.,0.,0.));
#868=DIRECTION('',(-0.473912002846972,-0.880572208031557,0.));
#869=DIRECTION('',(0.,0.,1.));
#870=DIRECTION('',(1.,0.,0.));
#871=DIRECTION('',(-0.834627475733645,-0.55081482982077,0.));
#872=DIRECTION('',(0.,0.,1.));
#873=DIRECTION('',(1.,0.,0.));
#874=DIRECTION('',(0.880572208031557,-0.473912002846972,0.));
#875=DIRECTION('',(0.473912002846972,0.880572208031557,0.));
#876=DIRECTION('',(0.,0.,1.));
#877=DIRECTION('',(0.,0.,1.));
#878=DIRECTION('',(0.,0.,1.));
#879=DIRECTION('',(1.,0.,0.));
#880=DIRECTION('',(0.,0.,1.));
#881=DIRECTION('',(0.,0.,1.));
#882=DIRECTION('',(1.,0.,0.));
#883=DIRECTION('',(0.,0.,1.));
#884=DIRECTION('',(0.55081482982077,-0.834627475733645,0.));
#885=DIRECTION('',(0.834627475733645,0.55081482982077,0.));
#886=DIRECTION('',(0.,0.,1.));
#887=DIRECTION('',(1.,0.,0.));
#888=DIRECTION('',(-0.977747362123423,0.20978583331743,0.));
#889=DIRECTION('',(0.,0.,1.));
#890=DIRECTION('',(1.,0.,0.));
#891=DIRECTION('',(-0.834627475733646,-0.550814829820768,0.));
#892=DIRECTION('',(0.,0.,1.));
#893=DIRECTION('',(1.,0.,0.));
#894=DIRECTION('',(0.,0.,1.));
#895=DIRECTION('',(1.,0.,0.));
#896=DIRECTION('',(0.,0.,1.));
#897=DIRECTION('',(0.,0.,1.));
#898=DIRECTION('',(0.550814829820768,-0.834627475733646,0.));
#899=DIRECTION('',(0.834627475733646,0.550814829820768,0.));
#900=DIRECTION('',(0.,0.,1.));
#901=DIRECTION('',(-0.20978583331743,-0.977747362123423,0.));
#902=DIRECTION('',(0.977747362123423,-0.20978583331743,0.));
#903=DIRECTION('',(0.,0.,1.));
#904=DIRECTION('',(0.,0.,1.));
#905=DIRECTION('',(1.,0.,0.));
#906=DIRECTION('',(0.,0.,1.));
#907=DIRECTION('',(1.,0.,0.));
#908=DIRECTION('',(-0.535199833867823,0.844725480749725,0.));
#909=DIRECTION('',(0.,0.,1.));
#910=DIRECTION('',(1.,0.,0.));
#911=DIRECTION('',(0.585786615635016,0.810465323714022,0.));
#912=DIRECTION('',(0.,0.,1.));
#913=DIRECTION('',(1.,0.,0.));
#914=DIRECTION('',(-0.844725480749725,-0.535199833867823,0.));
#915=DIRECTION('',(0.535199833867823,-0.844725480749725,0.));
#916=DIRECTION('',(0.,0.,1.));
#917=DIRECTION('',(0.,0.,1.));
#918=DIRECTION('',(0.,0.,1.));
#919=DIRECTION('',(1.,0.,0.));
#920=DIRECTION('',(0.,0.,1.));
#921=DIRECTION('',(0.,0.,1.));
#922=DIRECTION('',(1.,0.,0.));
#923=DIRECTION('',(0.,0.,1.));
#924=DIRECTION('',(-0.810465323714022,0.585786615635016,0.));
#925=DIRECTION('',(-0.585786615635016,-0.810465323714022,0.));
#926=CARTESIAN_POINT('',(0.,0.,0.));
#927=CARTESIAN_POINT('',(0.0250486955231529,0.0401274223922664,0.013));
#928=CARTESIAN_POINT('',(0.0275686061058898,0.0662309500340884,0.013));
#929=CARTESIAN_POINT('',(0.0295306390469772,0.0677597157392134,0.013));
#930=CARTESIAN_POINT('',(0.0287842698920731,0.0684009406796998,0.013));
#931=CARTESIAN_POINT('',(0.030678251826111,0.068517086130217,0.013));
#932=CARTESIAN_POINT('',(0.0318258646052448,0.0692744565212205,0.013));
#933=CARTESIAN_POINT('',(0.0273903810465098,0.0660438177936131,0.013));
#934=CARTESIAN_POINT('',(0.0300875278999022,0.0708225142517866,0.013));
#935=CARTESIAN_POINT('',(0.0294358988959876,0.0696117274657432,0.013));
#936=CARTESIAN_POINT('',(-0.00072012460720722,0.0319989127944739,0.013));
#937=CARTESIAN_POINT('',(-0.00293128095807281,0.03313797997008,0.013));
#938=CARTESIAN_POINT('',(-0.00316442662437414,0.0315383977704086,0.013));
#939=CARTESIAN_POINT('',(-0.00410901463705482,0.033847605492022,0.013));
#940=CARTESIAN_POINT('',(-0.00528674831603682,0.034557231013964,0.013));
#941=CARTESIAN_POINT('',(-0.000456955328281238,0.0319526933455437,0.013));
#942=CARTESIAN_POINT('',(-0.0058588793771216,0.0309884665354241,0.013));
#943=CARTESIAN_POINT('',(-0.00451165300074787,0.0312634321529164,0.013));
#944=CARTESIAN_POINT('',(0.0506977293438582,0.0309246822143908,0.013));
#945=CARTESIAN_POINT('',(0.0536345335944214,0.0262894166080912,0.013));
#946=CARTESIAN_POINT('',(0.0552775841256828,0.0339471706964976,0.013));
#947=CARTESIAN_POINT('',(0.0403293400553121,0.0178595331323489,0.013));
#948=CARTESIAN_POINT('',(0.0270241465162028,0.00942964965660662,0.013));
#949=CARTESIAN_POINT('',(0.0240873411285433,0.0140649170576271,0.013));
#950=CARTESIAN_POINT('',(0.0208729505776741,0.00961764563006247,0.013));
#951=CARTESIAN_POINT('',(0.00852911168173291,0.0185395024933041,0.013));
#952=CARTESIAN_POINT('',(-0.0038147272142083,0.0274613593565458,0.013));
#953=CARTESIAN_POINT('',(-0.000600337356860631,0.0319086298245715,0.013));
#954=CARTESIAN_POINT('',(-0.00530039842636543,0.0347405801620101,0.013));
#955=CARTESIAN_POINT('',(0.00502677725962001,0.0518801308659696,0.013));
#956=CARTESIAN_POINT('',(0.0153539529456055,0.0690196815699292,0.013));
#957=CARTESIAN_POINT('',(0.0200550589606035,0.066185883066806,0.013));
#958=CARTESIAN_POINT('',(0.020053422633245,0.0716750368306377,0.013));
#959=CARTESIAN_POINT('',(0.0237385774725369,0.0716761353824261,0.013));
#960=CARTESIAN_POINT('',(0.0274237323118286,0.0716772339342145,0.013));
#961=CARTESIAN_POINT('',(0.0274243249157223,0.0661899267041657,0.013));
#962=CARTESIAN_POINT('',(0.0320041823244204,0.0692124169198849,0.013));
#963=CARTESIAN_POINT('',(0.0436408832250516,0.0515797938081913,0.013));
#964=CARTESIAN_POINT('',(0.0199088025878271,0.0662244803740463,0.013));
#965=CARTESIAN_POINT('',(0.0186488515766532,0.0683693647056764,0.013));
#966=CARTESIAN_POINT('',(0.0178844146744329,0.0676701148101103,0.013));
#967=CARTESIAN_POINT('',(0.0179725048083995,0.0695665196869018,0.013));
#968=CARTESIAN_POINT('',(0.0172961580401456,0.0707636746681271,0.013));
#969=CARTESIAN_POINT('',(0.0200938304577406,0.0660409804408471,0.013));
#970=CARTESIAN_POINT('',(0.0155289473164688,0.0690893658539943,0.013));
#971=CARTESIAN_POINT('',(0.0167066809954509,0.0683797403320523,0.013));
#972=CARTESIAN_POINT('',(0.0508179057422573,0.0310144465350747,0.013));
#973=CARTESIAN_POINT('',(0.0532573580355453,0.0305289012048379,0.013));
#974=CARTESIAN_POINT('',(0.0529770748578719,0.0322492220163338,0.013));
#975=CARTESIAN_POINT('',(0.054601760658465,0.0302404456840265,0.013));
#976=CARTESIAN_POINT('',(0.0559461632813847,0.0299519901632151,0.013));
#977=CARTESIAN_POINT('',(0.0505530182158232,0.0309641624553077,0.013));
#978=CARTESIAN_POINT('',(0.0552723004161394,0.033763962798341,0.013));
#979=CARTESIAN_POINT('',(0.0541246876370056,0.0330065924073374,0.013));
#980=CARTESIAN_POINT('',(0.024103465484194,0.0139157862252679,0.013));
#981=CARTESIAN_POINT('',(0.0226869013248049,0.0118712720261581,0.013));
#982=CARTESIAN_POINT('',(0.025363122588994,0.0117710353524731,0.013));
#983=CARTESIAN_POINT('',(0.0218814447283067,0.0107568822060513,0.013));
#984=CARTESIAN_POINT('',(0.0210759881318086,0.00964249238594454,0.013));
#985=CARTESIAN_POINT('',(0.0241130523081571,0.0142126970807793,0.013));
#986=CARTESIAN_POINT('',(0.0268349221321306,0.00944804028041134,0.013));
#987=CARTESIAN_POINT('',(0.0260990223605623,0.0106095378164422,0.013));
#988=CARTESIAN_POINT('',(0.0506977293438582,0.0309246822143908,0.016));
#989=CARTESIAN_POINT('',(0.0552775841256828,0.0339471706964976,0.016));
#990=CARTESIAN_POINT('',(0.0552775841256828,0.0339471706964976,0.016));
#991=CARTESIAN_POINT('',(0.0506977293438582,0.0309246822143908,0.016));
#992=CARTESIAN_POINT('',(0.0536345335944214,0.0262894166080912,0.016));
#993=CARTESIAN_POINT('',(0.0536345335944214,0.0262894166080912,0.016));
#994=CARTESIAN_POINT('',(0.0436408832250516,0.0515797938081913,0.016));
#995=CARTESIAN_POINT('',(0.0320041823244204,0.0692124169198849,0.016));
#996=CARTESIAN_POINT('',(0.0320041823244204,0.0692124169198849,0.016));
#997=CARTESIAN_POINT('',(0.0436408832250516,0.0515797938081913,0.016));
#998=CARTESIAN_POINT('',(0.0274243249157223,0.0661899267041657,0.016));
#999=CARTESIAN_POINT('',(0.0274237323118286,0.0716772339342145,0.016));
#1000=CARTESIAN_POINT('',(0.0274237323118286,0.0716772339342145,0.016));
#1001=CARTESIAN_POINT('',(0.0274243249157223,0.0661899267041657,0.016));
#1002=CARTESIAN_POINT('',(0.0237385774725369,0.0716761353824261,0.016));
#1003=CARTESIAN_POINT('',(0.020053422633245,0.0716750368306377,0.016));
#1004=CARTESIAN_POINT('',(0.020053422633245,0.0716750368306377,0.016));
#1005=CARTESIAN_POINT('',(0.0237385774725369,0.0716761353824261,0.016));
#1006=CARTESIAN_POINT('',(0.0200550589606035,0.066185883066806,0.016));
#1007=CARTESIAN_POINT('',(0.0153539529456055,0.0690196815699292,0.016));
#1008=CARTESIAN_POINT('',(0.0153539529456055,0.0690196815699292,0.016));
#1009=CARTESIAN_POINT('',(0.0200550589606035,0.066185883066806,0.016));
#1010=CARTESIAN_POINT('',(0.00502677725962001,0.0518801308659696,0.016));
#1011=CARTESIAN_POINT('',(-0.00530039842636543,0.0347405801620101,0.016));
#1012=CARTESIAN_POINT('',(-0.00530039842636543,0.0347405801620101,0.016));
#1013=CARTESIAN_POINT('',(0.00502677725962001,0.0518801308659696,0.016));
#1014=CARTESIAN_POINT('',(-0.000600337356860631,0.0319086298245715,0.016));
#1015=CARTESIAN_POINT('',(-0.0038147272142083,0.0274613593565458,0.016));
#1016=CARTESIAN_POINT('',(-0.0038147272142083,0.0274613593565458,0.016));
#1017=CARTESIAN_POINT('',(-0.000600337356860631,0.0319086298245715,0.016));
#1018=CARTESIAN_POINT('',(0.00852911168173291,0.0185395024933041,0.016));
#1019=CARTESIAN_POINT('',(0.0208729505776741,0.00961764563006247,0.016));
#1020=CARTESIAN_POINT('',(0.0208729505776741,0.00961764563006247,0.016));
#1021=CARTESIAN_POINT('',(0.00852911168173291,0.0185395024933041,0.016));
#1022=CARTESIAN_POINT('',(0.0240873411285433,0.0140649170576271,0.016));
#1023=CARTESIAN_POINT('',(0.0270241465162028,0.00942964965660662,0.016));
#1024=CARTESIAN_POINT('',(0.0270241465162028,0.00942964965660662,0.016));
#1025=CARTESIAN_POINT('',(0.0240873411285433,0.0140649170576271,0.016));
#1026=CARTESIAN_POINT('',(0.0403293400553121,0.0178595331323489,0.016));
#1027=CARTESIAN_POINT('',(0.0403293400553121,0.0178595331323489,0.016));
#1028=CARTESIAN_POINT('',(0.0250486955231529,0.0401274223922664,0.016));
#1029=CARTESIAN_POINT('',(0.0250486955231529,0.0401274223922664,0.009));
#1030=CARTESIAN_POINT('',(-0.00451165300074787,0.0312634321529164,0.009));
#1031=CARTESIAN_POINT('',(-0.0058588793771216,0.0309884665354241,0.009));
#1032=CARTESIAN_POINT('',(-0.00316442662437414,0.0315383977704086,0.009));
#1033=CARTESIAN_POINT('',(-0.000456955328281238,0.0319526933455437,0.009));
#1034=CARTESIAN_POINT('',(-0.00528674831603682,0.034557231013964,0.009));
#1035=CARTESIAN_POINT('',(-0.00410901463705482,0.033847605492022,0.009));
#1036=CARTESIAN_POINT('',(-0.00293128095807281,0.03313797997008,0.009));
#1037=CARTESIAN_POINT('',(-0.00072012460720722,0.0319989127944739,0.009));
#1038=CARTESIAN_POINT('',(-0.00451165300074787,0.0312634321529164,0.008998));
#1039=CARTESIAN_POINT('',(-0.0058588793771216,0.0309884665354241,0.008998));
#1040=CARTESIAN_POINT('',(-0.00316442662437414,0.0315383977704086,0.008998));
#1041=CARTESIAN_POINT('',(-0.000456955328281238,0.0319526933455437,0.008998));
#1042=CARTESIAN_POINT('',(-0.00528674831603682,0.034557231013964,0.008998));
#1043=CARTESIAN_POINT('',(-0.00072012460720722,0.0319989127944739,0.008998));
#1044=CARTESIAN_POINT('',(-0.00293128095807281,0.03313797997008,0.008998));
#1045=CARTESIAN_POINT('',(-0.00410901463705482,0.033847605492022,0.008998));
#1046=CARTESIAN_POINT('',(0.0250486955231529,0.0401274223922664,0.009));
#1047=CARTESIAN_POINT('',(0.0167066809954509,0.0683797403320523,0.009));
#1048=CARTESIAN_POINT('',(0.0155289473164688,0.0690893658539943,0.009));
#1049=CARTESIAN_POINT('',(0.0178844146744329,0.0676701148101103,0.009));
#1050=CARTESIAN_POINT('',(0.0200938304577406,0.0660409804408471,0.009));
#1051=CARTESIAN_POINT('',(0.0172961580401456,0.0707636746681271,0.009));
#1052=CARTESIAN_POINT('',(0.0179725048083995,0.0695665196869018,0.009));
#1053=CARTESIAN_POINT('',(0.0186488515766532,0.0683693647056764,0.009));
#1054=CARTESIAN_POINT('',(0.0199088025878271,0.0662244803740463,0.009));
#1055=CARTESIAN_POINT('',(0.0167066809954509,0.0683797403320523,0.008998));
#1056=CARTESIAN_POINT('',(0.0155289473164688,0.0690893658539943,0.008998));
#1057=CARTESIAN_POINT('',(0.0178844146744329,0.0676701148101103,0.008998));
#1058=CARTESIAN_POINT('',(0.0200938304577406,0.0660409804408471,0.008998));
#1059=CARTESIAN_POINT('',(0.0172961580401456,0.0707636746681271,0.008998));
#1060=CARTESIAN_POINT('',(0.0199088025878271,0.0662244803740463,0.008998));
#1061=CARTESIAN_POINT('',(0.0186488515766532,0.0683693647056764,0.008998));
#1062=CARTESIAN_POINT('',(0.0179725048083995,0.0695665196869018,0.008998));
#1063=CARTESIAN_POINT('',(0.0250486955231529,0.0401274223922664,0.009));
#1064=CARTESIAN_POINT('',(0.0294358988959876,0.0696117274657432,0.009));
#1065=CARTESIAN_POINT('',(0.0300875278999022,0.0708225142517866,0.009));
#1066=CARTESIAN_POINT('',(0.0287842698920731,0.0684009406796998,0.009));
#1067=CARTESIAN_POINT('',(0.0273903810465098,0.0660438177936131,0.009));
#1068=CARTESIAN_POINT('',(0.0318258646052448,0.0692744565212205,0.009));
#1069=CARTESIAN_POINT('',(0.030678251826111,0.068517086130217,0.009));
#1070=CARTESIAN_POINT('',(0.0295306390469772,0.0677597157392134,0.009));
#1071=CARTESIAN_POINT('',(0.0275686061058898,0.0662309500340884,0.009));
#1072=CARTESIAN_POINT('',(0.0294358988959876,0.0696117274657432,0.008998));
#1073=CARTESIAN_POINT('',(0.0300875278999022,0.0708225142517866,0.008998));
#1074=CARTESIAN_POINT('',(0.0287842698920731,0.0684009406796998,0.008998));
#1075=CARTESIAN_POINT('',(0.0273903810465098,0.0660438177936131,0.008998));
#1076=CARTESIAN_POINT('',(0.0318258646052448,0.0692744565212205,0.008998));
#1077=CARTESIAN_POINT('',(0.0275686061058898,0.0662309500340884,0.008998));
#1078=CARTESIAN_POINT('',(0.0295306390469772,0.0677597157392134,0.008998));
#1079=CARTESIAN_POINT('',(0.030678251826111,0.068517086130217,0.008998));
#1080=CARTESIAN_POINT('',(0.0250486955231529,0.0401274223922664,0.009));
#1081=CARTESIAN_POINT('',(0.054601760658465,0.0302404456840265,0.009));
#1082=CARTESIAN_POINT('',(0.0559461632813847,0.0299519901632151,0.009));
#1083=CARTESIAN_POINT('',(0.0532573580355453,0.0305289012048379,0.009));
#1084=CARTESIAN_POINT('',(0.0508179057422573,0.0310144465350747,0.009));
#1085=CARTESIAN_POINT('',(0.0529770748578719,0.0322492220163338,0.009));
#1086=CARTESIAN_POINT('',(0.0541246876370056,0.0330065924073374,0.009));
#1087=CARTESIAN_POINT('',(0.0552723004161394,0.033763962798341,0.009));
#1088=CARTESIAN_POINT('',(0.0505530182158232,0.0309641624553077,0.009));
#1089=CARTESIAN_POINT('',(0.0508179057422573,0.0310144465350747,0.008998));
#1090=CARTESIAN_POINT('',(0.0529770748578719,0.0322492220163338,0.008998));
#1091=CARTESIAN_POINT('',(0.0532573580355453,0.0305289012048379,0.008998));
#1092=CARTESIAN_POINT('',(0.0541246876370056,0.0330065924073374,0.008998));
#1093=CARTESIAN_POINT('',(0.0552723004161394,0.033763962798341,0.008998));
#1094=CARTESIAN_POINT('',(0.054601760658465,0.0302404456840265,0.008998));
#1095=CARTESIAN_POINT('',(0.0559461632813847,0.0299519901632151,0.008998));
#1096=CARTESIAN_POINT('',(0.0505530182158232,0.0309641624553077,0.008998));
#1097=CARTESIAN_POINT('',(0.0250486955231529,0.0401274223922664,0.009));
#1098=CARTESIAN_POINT('',(0.0260990223605623,0.0106095378164422,0.009));
#1099=CARTESIAN_POINT('',(0.0268349221321306,0.00944804028041134,0.009));
#1100=CARTESIAN_POINT('',(0.025363122588994,0.0117710353524731,0.009));
#1101=CARTESIAN_POINT('',(0.0241130523081571,0.0142126970807793,0.009));
#1102=CARTESIAN_POINT('',(0.0210759881318086,0.00964249238594454,0.009));
#1103=CARTESIAN_POINT('',(0.0218814447283067,0.0107568822060513,0.009));
#1104=CARTESIAN_POINT('',(0.0226869013248049,0.0118712720261581,0.009));
#1105=CARTESIAN_POINT('',(0.024103465484194,0.0139157862252679,0.009));
#1106=CARTESIAN_POINT('',(0.0260990223605623,0.0106095378164422,0.008998));
#1107=CARTESIAN_POINT('',(0.0268349221321306,0.00944804028041134,0.008998));
#1108=CARTESIAN_POINT('',(0.025363122588994,0.0117710353524731,0.008998));
#1109=CARTESIAN_POINT('',(0.0241130523081571,0.0142126970807793,0.008998));
#1110=CARTESIAN_POINT('',(0.0210759881318086,0.00964249238594454,0.008998));
#1111=CARTESIAN_POINT('',(0.024103465484194,0.0139157862252679,0.008998));
#1112=CARTESIAN_POINT('',(0.0226869013248049,0.0118712720261581,0.008998));
#1113=CARTESIAN_POINT('',(0.0218814447283067,0.0107568822060513,0.008998));
#1114=MECHANICAL_DESIGN_GEOMETRIC_PRESENTATION_REPRESENTATION('',(#651),
#1115);
#1115=(
GEOMETRIC_REPRESENTATION_CONTEXT(3)
GLOBAL_UNCERTAINTY_ASSIGNED_CONTEXT((#1116))
GLOBAL_UNIT_ASSIGNED_CONTEXT((#1119,#1118,#1117))
REPRESENTATION_CONTEXT('Cap','TOP_LEVEL_ASSEMBLY_PART')
);
#1116=UNCERTAINTY_MEASURE_WITH_UNIT(LENGTH_MEASURE(1.E-8),#1119,
'DISTANCE_ACCURACY_VALUE','Maximum Tolerance applied to model');
#1117=(
NAMED_UNIT(*)
SI_UNIT($,.STERADIAN.)
SOLID_ANGLE_UNIT()
);
#1118=(
NAMED_UNIT(*)
PLANE_ANGLE_UNIT()
SI_UNIT($,.RADIAN.)
);
#1119=(
LENGTH_UNIT()
NAMED_UNIT(*)
SI_UNIT($,.METRE.)
);
#1120=PRODUCT_DEFINITION_SHAPE('','',#1121);
#1121=PRODUCT_DEFINITION('','',#1123,#1122);
#1122=PRODUCT_DEFINITION_CONTEXT('',#1129,'design');
#1123=PRODUCT_DEFINITION_FORMATION_WITH_SPECIFIED_SOURCE('','',#1125,
 .NOT_KNOWN.);
#1124=PRODUCT_RELATED_PRODUCT_CATEGORY('','',(#1125));
#1125=PRODUCT('Cap','Cap','Cap',(#1127));
#1126=PRODUCT_CATEGORY('','');
#1127=PRODUCT_CONTEXT('',#1129,'mechanical');
#1128=APPLICATION_PROTOCOL_DEFINITION('international standard',
'ap242_managed_model_based_3d_engineering',2020,#1129);
#1129=APPLICATION_CONTEXT('managed model based 3d engineering');
ENDSEC;
END-ISO-10303-21;
